<?xml version="1.0" standalone="no"?>
<!DOCTYPE svg PUBLIC "-//W3C//DTD SVG 20010904//EN"
 "http://www.w3.org/TR/2001/REC-SVG-20010904/DTD/svg10.dtd">
<svg version="1.0" xmlns="http://www.w3.org/2000/svg"
 width="512.000000pt" height="512.000000pt" viewBox="0 0 512.000000 512.000000"
 preserveAspectRatio="xMidYMid meet">

<g transform="translate(0.000000,512.000000) scale(0.100000,-0.100000)"
fill="#000000" stroke="none">
<path d="M875 5113 c-151 -13 -251 -50 -285 -106 -26 -42 -25 -103 1 -147 12
-19 124 -136 250 -260 125 -124 235 -240 244 -259 23 -46 30 -139 15 -187 -30
-95 -100 -143 -205 -144 -104 0 -133 21 -385 275 -124 124 -242 235 -262 246
-104 54 -195 -12 -229 -165 -22 -97 -18 -304 8 -401 69 -256 232 -459 463
-575 101 -51 187 -76 309 -91 118 -14 244 -3 356 32 l68 21 127 -127 126 -126
-17 -67 c-11 -41 -18 -106 -19 -167 -2 -264 -78 -400 -421 -749 l-205 -209
-53 13 c-62 15 -126 8 -179 -19 -54 -28 -477 -457 -496 -503 -22 -52 -20 -143
4 -198 28 -63 1113 -1141 1180 -1172 51 -24 126 -27 186 -8 30 10 91 64 267
239 126 125 238 244 250 266 24 47 29 155 8 194 -13 24 -5 33 260 296 272 271
327 315 386 315 15 0 77 -7 136 -17 131 -21 205 -11 336 42 l86 35 83 -83 84
-84 -21 -66 c-26 -84 -45 -226 -38 -286 13 -119 147 -106 147 15 1 83 19 184
51 276 25 73 28 92 18 110 -6 13 -281 290 -611 617 -414 411 -598 599 -594
610 2 9 16 49 31 90 15 41 29 98 32 128 3 29 7 53 9 53 2 0 37 -22 79 -49 135
-88 314 -141 429 -127 l53 7 6 -49 c17 -141 135 -265 277 -290 32 -6 44 -13
41 -23 -2 -8 -3 -44 -3 -81 0 -161 120 -288 285 -304 l62 -7 121 -118 c92 -91
127 -119 147 -119 14 0 68 14 119 32 86 30 103 32 228 33 156 0 227 -17 365
-88 111 -57 235 -181 292 -292 69 -134 88 -210 87 -355 0 -104 -14 -210 -28
-210 -2 0 -109 105 -237 233 -255 254 -286 277 -410 296 -109 18 -213 -9 -306
-77 -30 -22 -52 -52 -80 -108 -36 -75 -38 -82 -38 -179 0 -93 2 -105 34 -170
29 -63 58 -95 268 -301 l235 -232 -38 -13 c-26 -10 -86 -14 -184 -14 -132 1
-152 3 -225 28 -160 56 -293 156 -381 290 -69 102 -83 117 -116 117 -34 0 -78
-39 -78 -70 0 -46 101 -190 196 -281 99 -93 205 -156 334 -197 244 -79 567
-43 625 68 20 38 19 93 -1 133 -9 18 -125 142 -258 277 -200 202 -244 252
-254 286 -46 161 42 294 196 297 107 2 115 -4 387 -273 262 -259 290 -280 357
-266 75 15 120 82 143 213 38 209 -3 425 -116 616 -55 95 -201 241 -296 296
-193 114 -408 154 -624 116 -47 -8 -105 -21 -129 -30 l-44 -16 -70 71 -71 70
217 217 c248 250 262 269 262 393 1 99 -27 163 -100 229 -57 52 -123 81 -184
81 l-37 0 -5 74 c-10 156 -117 281 -268 312 -51 10 -55 13 -50 35 3 13 5 58 4
99 -1 95 -33 168 -104 234 -64 60 -127 88 -213 94 -55 4 -67 8 -62 20 3 8 0
42 -6 76 -30 170 -168 286 -339 286 -124 0 -164 -22 -326 -182 -77 -76 -144
-138 -148 -138 -4 0 -24 13 -44 30 -20 16 -58 34 -84 39 -84 19 -144 -3 -226
-82 l-52 -52 -111 111 -111 111 21 67 c137 445 -107 935 -545 1095 -113 41
-263 63 -369 54z m233 -169 c41 -9 113 -36 165 -62 76 -37 108 -61 182 -136
130 -131 193 -258 216 -438 14 -108 1 -221 -37 -331 -44 -124 -53 -101 107
-263 l144 -144 -168 -168 -167 -167 -139 139 c-158 158 -151 155 -268 113
-374 -135 -790 52 -940 423 -30 76 -53 193 -53 273 0 67 17 175 30 198 7 11
63 -40 247 -223 288 -286 298 -293 463 -293 97 0 110 2 170 31 82 39 125 82
164 164 28 59 31 74 31 165 0 92 -3 105 -33 170 -29 61 -59 96 -262 300 -127
127 -230 234 -230 237 0 7 85 26 145 31 59 6 150 -2 233 -19z m1878 -1070 c73
-58 100 -166 61 -239 -9 -17 -72 -86 -140 -154 -107 -106 -127 -122 -143 -113
-11 6 -74 66 -141 134 l-123 123 128 127 c70 70 141 134 157 143 21 11 50 15
97 13 57 -3 72 -8 104 -34z m-338 -608 c215 -216 392 -399 392 -407 0 -9 -17
-34 -37 -56 -77 -83 -220 -81 -393 4 -86 42 -108 60 -236 185 -121 118 -146
138 -173 138 -34 0 -70 -29 -72 -57 -2 -34 3 -48 36 -93 43 -61 55 -100 55
-185 0 -124 -48 -242 -144 -353 -57 -66 -65 -95 -39 -130 14 -19 31 -28 57
-30 33 -3 42 2 77 39 l40 43 431 -431 431 -431 -88 -28 -87 -27 -139 18 c-168
22 -217 15 -306 -46 -32 -23 -175 -157 -318 -300 l-260 -259 -203 197 c-175
168 -208 196 -234 196 -38 0 -68 -33 -68 -76 0 -27 30 -61 234 -267 145 -145
237 -245 241 -261 4 -16 1 -38 -9 -55 -22 -42 -406 -421 -439 -433 -21 -8 -36
-7 -60 3 -18 8 -266 249 -574 558 -534 534 -543 544 -543 583 0 38 8 47 218
257 209 210 219 218 257 218 37 0 47 -8 249 -209 116 -115 221 -212 233 -215
28 -9 80 17 88 45 4 11 4 30 1 42 -3 12 -82 98 -175 191 l-170 170 212 216
c361 367 440 507 457 815 7 147 17 190 55 266 20 39 519 546 550 559 11 5 29
6 40 3 11 -2 197 -181 413 -397z m680 249 c103 -44 149 -160 103 -260 -11 -23
-73 -93 -147 -166 l-129 -126 -134 139 -134 140 124 125 c68 68 140 133 159
143 43 23 108 25 158 5z m287 -446 c115 -32 176 -156 130 -266 -19 -46 -302
-334 -363 -370 -121 -72 -276 7 -290 146 -8 88 7 112 182 289 154 156 189 185
246 203 36 11 50 10 95 -2z m384 -404 c44 -22 79 -71 86 -119 12 -77 -13 -111
-231 -328 -214 -211 -240 -228 -319 -214 -52 10 -110 66 -124 119 -21 84 -9
102 207 321 109 109 211 207 227 217 36 23 114 25 154 4z"/>
</g>
</svg>
